ffmpeg started on 2025-06-04 at 21:03:27
Report written to "D:\Convert\FFMetrics\reports\ssim_report-6.txt"
Log level: 32
Command line:
ffmpeg -hide_banner -nostdin -i "G:\\\xc0\xed\xe8\xec\xe5\\\xce\xed\xe3\xee\xe8\xed\xe3\xe8\\!_36_\xce\xf1\xe5\xed\xfc_2024\\DreamCast\\\xc4\xe5\xf2\xf1\xea\xe0\xff \xc4\xe5\xeb\xe8\xea\xee\\[DC] Delicos Nursery - 13_Telegram_HEVC.mkv" -i "G:\\\xc0\xed\xe8\xec\xe5\\\xce\xed\xe3\xee\xe8\xed\xe3\xe8\\!_36_\xce\xf1\xe5\xed\xfc_2024\\DreamCast\\\xc4\xe5\xf2\xf1\xea\xe0\xff \xc4\xe5\xeb\xe8\xea\xee\\[DC] Delicos Nursery - 13_Telegram.mp4" -lavfi "[0:v]settb=AVTB,setpts=PTS-STARTPTS,format=pix_fmts=yuv420p10,fps=24000/1001,scale=1920:1080:flags=bicubic[main];[1:v]settb=AVTB,setpts=PTS-STARTPTS,format=pix_fmts=yuv420p,fps=24000/1001,scale=1920:1080:flags=bicubic[ref];[main][ref]ssim=eof_action=endall:stats_file='D\\:/Convert/FFMetrics/logs/ssim_logfile-6.txt'" -f null -
Input #0, matroska,webm, from 'G:\Аниме\Онгоинги\!_36_Осень_2024\DreamCast\Детская Делико\[DC] Delicos Nursery - 13_Telegram_HEVC.mkv':
  Metadata:
    COMPATIBLE_BRANDS: isomiso2avc1mp41
    MAJOR_BRAND     : isom
    MINOR_VERSION   : 512
    ENCODER         : Lavf61.7.100
  Duration: 00:23:46.60, start: -0.021000, bitrate: 1338 kb/s
  Stream #0:0: Video: hevc (Main 10), yuv420p10le(tv, bt709, progressive), 1920x1080 [SAR 1:1 DAR 16:9], 23.98 fps, 23.98 tbr, 1k tbn (default)
      Metadata:
        HANDLER_NAME    : VideoHandler
        VENDOR_ID       : [0][0][0][0]
        ENCODER         : Lavc61.19.100 libx265
        BPS             : 1140713
        DURATION        : 00:23:46.508708333
        NUMBER_OF_FRAMES: 34202
        NUMBER_OF_BYTES : 203404559
        _STATISTICS_WRITING_APP: mkvpropedit v66.0.0 ('Josie') 64-bit
        _STATISTICS_WRITING_DATE_UTC: 2025-05-30 14:13:02
        _STATISTICS_TAGS: BPS DURATION NUMBER_OF_FRAMES NUMBER_OF_BYTES
  Stream #0:1: Audio: aac (LC), 48000 Hz, stereo, fltp (default)
      Metadata:
        HANDLER_NAME    : SoundHandler
        VENDOR_ID       : [0][0][0][0]
        ENCODER         : Lavc61.19.100 aac
        BPS             : 193535
        DURATION        : 00:23:46.602000000
        NUMBER_OF_FRAMES: 66873
        NUMBER_OF_BYTES : 34512343
        _STATISTICS_WRITING_APP: mkvpropedit v66.0.0 ('Josie') 64-bit
        _STATISTICS_WRITING_DATE_UTC: 2025-05-30 14:13:02
        _STATISTICS_TAGS: BPS DURATION NUMBER_OF_FRAMES NUMBER_OF_BYTES
Input #1, mov,mp4,m4a,3gp,3g2,mj2, from 'G:\Аниме\Онгоинги\!_36_Осень_2024\DreamCast\Детская Делико\[DC] Delicos Nursery - 13_Telegram.mp4':
  Metadata:
    major_brand     : isom
    minor_version   : 512
    compatible_brands: isomiso2avc1mp41
    encoder         : Lavf61.1.100
  Duration: 00:23:46.57, start: 0.000000, bitrate: 3768 kb/s
  Stream #1:0[0x1](und): Video: h264 (High) (avc1 / 0x31637661), yuv420p(tv, bt709, progressive), 1920x1080 [SAR 1:1 DAR 16:9], 3621 kb/s, 23.98 fps, 23.98 tbr, 24k tbn (default)
      Metadata:
        handler_name    : VideoHandler
        vendor_id       : [0][0][0][0]
        encoder         : Lavc61.3.100 h264_qsv
  Stream #1:1[0x2](und): Audio: aac (HE-AACv2) (mp4a / 0x6134706D), 48000 Hz, stereo, fltp, 144 kb/s (default)
      Metadata:
        handler_name    : SoundHandler
        vendor_id       : [0][0][0][0]
Stream mapping:
  Stream #0:0 (hevc) -> settb:default
  Stream #1:0 (h264) -> settb:default
  ssim:default -> Stream #0:0 (wrapped_avframe)
  Stream #0:1 -> #0:1 (aac (native) -> pcm_s16le (native))
Output #0, null, to 'pipe:':
  Metadata:
    COMPATIBLE_BRANDS: isomiso2avc1mp41
    MAJOR_BRAND     : isom
    MINOR_VERSION   : 512
    encoder         : Lavf61.7.100
  Stream #0:0: Video: wrapped_avframe, yuv420p10le(tv, bt709, progressive), 1920x1080 [SAR 1:1 DAR 16:9], q=2-31, 200 kb/s, 23.98 fps, 23.98 tbn
      Metadata:
        encoder         : Lavc61.19.100 wrapped_avframe
  Stream #0:1: Audio: pcm_s16le, 48000 Hz, stereo, s16, 1536 kb/s (default)
      Metadata:
        HANDLER_NAME    : SoundHandler
        VENDOR_ID       : [0][0][0][0]
        _STATISTICS_TAGS: BPS DURATION NUMBER_OF_FRAMES NUMBER_OF_BYTES
        BPS             : 193535
        DURATION        : 00:23:46.602000000
        NUMBER_OF_FRAMES: 66873
        NUMBER_OF_BYTES : 34512343
        _STATISTICS_WRITING_APP: mkvpropedit v66.0.0 ('Josie') 64-bit
        _STATISTICS_WRITING_DATE_UTC: 2025-05-30 14:13:02
        encoder         : Lavc61.19.100 pcm_s16le
frame=  168 fps=0.0 q=-0.0 size=N/A time=00:00:07.00 bitrate=N/A speed=13.6x    frame=  333 fps=325 q=-0.0 size=N/A time=00:00:13.88 bitrate=N/A speed=13.5x    frame=  545 fps=351 q=-0.0 size=N/A time=00:00:22.73 bitrate=N/A speed=14.7x    frame=  769 fps=370 q=-0.0 size=N/A time=00:00:32.07 bitrate=N/A speed=15.4x    frame=  973 fps=376 q=-0.0 size=N/A time=00:00:40.58 bitrate=N/A speed=15.7x    frame= 1160 fps=374 q=-0.0 size=N/A time=00:00:48.38 bitrate=N/A speed=15.6x    frame= 1323 fps=366 q=-0.0 size=N/A time=00:00:55.18 bitrate=N/A speed=15.3x    frame= 1527 fps=369 q=-0.0 size=N/A time=00:01:03.68 bitrate=N/A speed=15.4x    frame= 1717 fps=369 q=-0.0 size=N/A time=00:01:11.61 bitrate=N/A speed=15.4x    frame= 1916 fps=371 q=-0.0 size=N/A time=00:01:19.91 bitrate=N/A speed=15.5x    frame= 2115 fps=372 q=-0.0 size=N/A time=00:01:28.21 bitrate=N/A speed=15.5x    frame= 2323 fps=374 q=-0.0 size=N/A time=00:01:36.88 bitrate=N/A speed=15.6x    frame= 2484 fps=370 q=-0.0 size=N/A time=00:01:43.60 bitrate=N/A speed=15.4x    frame= 2674 fps=370 q=-0.0 size=N/A time=00:01:51.52 bitrate=N/A speed=15.4x    frame= 2907 fps=375 q=-0.0 size=N/A time=00:02:01.24 bitrate=N/A speed=15.6x    frame= 3144 fps=381 q=-0.0 size=N/A time=00:02:11.13 bitrate=N/A speed=15.9x    frame= 3395 fps=387 q=-0.0 size=N/A time=00:02:21.59 bitrate=N/A speed=16.1x    frame= 3631 fps=391 q=-0.0 size=N/A time=00:02:31.44 bitrate=N/A speed=16.3x    frame= 3891 fps=396 q=-0.0 size=N/A time=00:02:42.28 bitrate=N/A speed=16.5x    frame= 4046 fps=392 q=-0.0 size=N/A time=00:02:48.75 bitrate=N/A speed=16.4x    frame= 4266 fps=394 q=-0.0 size=N/A time=00:02:57.92 bitrate=N/A speed=16.4x    frame= 4466 fps=393 q=-0.0 size=N/A time=00:03:06.26 bitrate=N/A speed=16.4x    frame= 4655 fps=392 q=-0.0 size=N/A time=00:03:14.15 bitrate=N/A speed=16.4x    frame= 4794 fps=387 q=-0.0 size=N/A time=00:03:19.94 bitrate=N/A speed=16.1x    frame= 4986 fps=387 q=-0.0 size=N/A time=00:03:27.95 bitrate=N/A speed=16.1x    frame= 5215 fps=388 q=-0.0 size=N/A time=00:03:37.50 bitrate=N/A speed=16.2x    frame= 5426 fps=390 q=-0.0 size=N/A time=00:03:46.30 bitrate=N/A speed=16.2x    frame= 5664 fps=392 q=-0.0 size=N/A time=00:03:56.23 bitrate=N/A speed=16.3x    frame= 5911 fps=395 q=-0.0 size=N/A time=00:04:06.53 bitrate=N/A speed=16.5x    frame= 6131 fps=396 q=-0.0 size=N/A time=00:04:15.71 bitrate=N/A speed=16.5x    frame= 6362 fps=398 q=-0.0 size=N/A time=00:04:25.34 bitrate=N/A speed=16.6x    frame= 6569 fps=398 q=-0.0 size=N/A time=00:04:33.98 bitrate=N/A speed=16.6x    frame= 6811 fps=400 q=-0.0 size=N/A time=00:04:44.07 bitrate=N/A speed=16.7x    frame= 7033 fps=401 q=-0.0 size=N/A time=00:04:53.33 bitrate=N/A speed=16.7x    frame= 7254 fps=402 q=-0.0 size=N/A time=00:05:02.55 bitrate=N/A speed=16.8x    frame= 7481 fps=403 q=-0.0 size=N/A time=00:05:12.02 bitrate=N/A speed=16.8x    frame= 7733 fps=405 q=-0.0 size=N/A time=00:05:22.53 bitrate=N/A speed=16.9x    frame= 7965 fps=406 q=-0.0 size=N/A time=00:05:32.20 bitrate=N/A speed=16.9x    frame= 8175 fps=406 q=-0.0 size=N/A time=00:05:40.96 bitrate=N/A speed=16.9x    frame= 8415 fps=408 q=-0.0 size=N/A time=00:05:50.97 bitrate=N/A speed=  17x    frame= 8686 fps=410 q=-0.0 size=N/A time=00:06:02.27 bitrate=N/A speed=17.1x    frame= 8956 fps=413 q=-0.0 size=N/A time=00:06:13.53 bitrate=N/A speed=17.2x    frame= 9222 fps=415 q=-0.0 size=N/A time=00:06:24.63 bitrate=N/A speed=17.3x    frame= 9433 fps=415 q=-0.0 size=N/A time=00:06:33.43 bitrate=N/A speed=17.3x    frame= 9666 fps=416 q=-0.0 size=N/A time=00:06:43.15 bitrate=N/A speed=17.4x    frame= 9929 fps=418 q=-0.0 size=N/A time=00:06:54.12 bitrate=N/A speed=17.4x    frame=10194 fps=420 q=-0.0 size=N/A time=00:07:05.17 bitrate=N/A speed=17.5x    frame=10457 fps=422 q=-0.0 size=N/A time=00:07:16.14 bitrate=N/A speed=17.6x    frame=10723 fps=424 q=-0.0 size=N/A time=00:07:27.23 bitrate=N/A speed=17.7x    frame=10979 fps=425 q=-0.0 size=N/A time=00:07:37.91 bitrate=N/A speed=17.7x    frame=11221 fps=426 q=-0.0 size=N/A time=00:07:48.00 bitrate=N/A speed=17.8x    frame=11483 fps=428 q=-0.0 size=N/A time=00:07:58.93 bitrate=N/A speed=17.8x    frame=11752 fps=430 q=-0.0 size=N/A time=00:08:10.15 bitrate=N/A speed=17.9x    frame=11976 fps=430 q=-0.0 size=N/A time=00:08:19.49 bitrate=N/A speed=17.9x    frame=12222 fps=430 q=-0.0 size=N/A time=00:08:29.75 bitrate=N/A speed=  18x    frame=12465 fps=431 q=-0.0 size=N/A time=00:08:39.89 bitrate=N/A speed=  18x    frame=12694 fps=431 q=-0.0 size=N/A time=00:08:49.44 bitrate=N/A speed=  18x    frame=12890 fps=431 q=-0.0 size=N/A time=00:08:57.62 bitrate=N/A speed=  18x    frame=13101 fps=430 q=-0.0 size=N/A time=00:09:06.42 bitrate=N/A speed=17.9x    frame=13311 fps=430 q=-0.0 size=N/A time=00:09:15.17 bitrate=N/A speed=17.9x    frame=13523 fps=430 q=-0.0 size=N/A time=00:09:24.02 bitrate=N/A speed=17.9x    frame=13749 fps=430 q=-0.0 size=N/A time=00:09:33.44 bitrate=N/A speed=17.9x    frame=14028 fps=431 q=-0.0 size=N/A time=00:09:45.08 bitrate=N/A speed=  18x    frame=14309 fps=433 q=-0.0 size=N/A time=00:09:56.80 bitrate=N/A speed=18.1x    frame=14558 fps=434 q=-0.0 size=N/A time=00:10:07.18 bitrate=N/A speed=18.1x    frame=14820 fps=435 q=-0.0 size=N/A time=00:10:18.11 bitrate=N/A speed=18.1x    frame=15006 fps=434 q=-0.0 size=N/A time=00:10:25.87 bitrate=N/A speed=18.1x    frame=15239 fps=434 q=-0.0 size=N/A time=00:10:35.59 bitrate=N/A speed=18.1x    frame=15465 fps=434 q=-0.0 size=N/A time=00:10:45.01 bitrate=N/A speed=18.1x    frame=15706 fps=435 q=-0.0 size=N/A time=00:10:55.07 bitrate=N/A speed=18.1x    frame=15900 fps=434 q=-0.0 size=N/A time=00:11:03.16 bitrate=N/A speed=18.1x    frame=16126 fps=434 q=-0.0 size=N/A time=00:11:12.58 bitrate=N/A speed=18.1x    frame=16355 fps=434 q=-0.0 size=N/A time=00:11:22.13 bitrate=N/A speed=18.1x    frame=16566 fps=434 q=-0.0 size=N/A time=00:11:30.94 bitrate=N/A speed=18.1x    frame=16811 fps=434 q=-0.0 size=N/A time=00:11:41.15 bitrate=N/A speed=18.1x    frame=16994 fps=433 q=-0.0 size=N/A time=00:11:48.79 bitrate=N/A speed=18.1x    frame=17249 fps=434 q=-0.0 size=N/A time=00:11:59.42 bitrate=N/A speed=18.1x    frame=17512 fps=435 q=-0.0 size=N/A time=00:12:10.39 bitrate=N/A speed=18.1x    frame=17749 fps=435 q=-0.0 size=N/A time=00:12:20.28 bitrate=N/A speed=18.2x    frame=17974 fps=435 q=-0.0 size=N/A time=00:12:29.66 bitrate=N/A speed=18.2x    frame=18216 fps=436 q=-0.0 size=N/A time=00:12:39.75 bitrate=N/A speed=18.2x    frame=18438 fps=436 q=-0.0 size=N/A time=00:12:49.01 bitrate=N/A speed=18.2x    frame=18638 fps=435 q=-0.0 size=N/A time=00:12:57.35 bitrate=N/A speed=18.1x    frame=18886 fps=436 q=-0.0 size=N/A time=00:13:07.70 bitrate=N/A speed=18.2x    frame=19150 fps=436 q=-0.0 size=N/A time=00:13:18.71 bitrate=N/A speed=18.2x    frame=19400 fps=437 q=-0.0 size=N/A time=00:13:29.14 bitrate=N/A speed=18.2x    frame=19632 fps=437 q=-0.0 size=N/A time=00:13:38.81 bitrate=N/A speed=18.2x    frame=19848 fps=437 q=-0.0 size=N/A time=00:13:47.82 bitrate=N/A speed=18.2x    frame=20075 fps=437 q=-0.0 size=N/A time=00:13:57.29 bitrate=N/A speed=18.2x    frame=20299 fps=437 q=-0.0 size=N/A time=00:14:06.63 bitrate=N/A speed=18.2x    frame=20528 fps=437 q=-0.0 size=N/A time=00:14:16.18 bitrate=N/A speed=18.2x    frame=20754 fps=437 q=-0.0 size=N/A time=00:14:25.61 bitrate=N/A speed=18.2x    frame=20970 fps=437 q=-0.0 size=N/A time=00:14:34.62 bitrate=N/A speed=18.2x    frame=21226 fps=437 q=-0.0 size=N/A time=00:14:45.30 bitrate=N/A speed=18.2x    frame=21450 fps=438 q=-0.0 size=N/A time=00:14:54.64 bitrate=N/A speed=18.2x    frame=21670 fps=437 q=-0.0 size=N/A time=00:15:03.81 bitrate=N/A speed=18.2x    frame=21901 fps=438 q=-0.0 size=N/A time=00:15:13.45 bitrate=N/A speed=18.2x    frame=22143 fps=438 q=-0.0 size=N/A time=00:15:23.54 bitrate=N/A speed=18.3x    frame=22383 fps=438 q=-0.0 size=N/A time=00:15:33.55 bitrate=N/A speed=18.3x    frame=22610 fps=438 q=-0.0 size=N/A time=00:15:43.02 bitrate=N/A speed=18.3x    frame=22844 fps=438 q=-0.0 size=N/A time=00:15:52.78 bitrate=N/A speed=18.3x    frame=23084 fps=439 q=-0.0 size=N/A time=00:16:02.79 bitrate=N/A speed=18.3x    frame=23359 fps=439 q=-0.0 size=N/A time=00:16:14.26 bitrate=N/A speed=18.3x    frame=23623 fps=440 q=-0.0 size=N/A time=00:16:25.27 bitrate=N/A speed=18.4x    frame=23816 fps=439 q=-0.0 size=N/A time=00:16:33.32 bitrate=N/A speed=18.3x    frame=23952 fps=438 q=-0.0 size=N/A time=00:16:38.99 bitrate=N/A speed=18.3x    frame=24127 fps=437 q=-0.0 size=N/A time=00:16:46.29 bitrate=N/A speed=18.2x    frame=24350 fps=437 q=-0.0 size=N/A time=00:16:55.59 bitrate=N/A speed=18.2x    frame=24608 fps=437 q=-0.0 size=N/A time=00:17:06.35 bitrate=N/A speed=18.2x    frame=24847 fps=438 q=-0.0 size=N/A time=00:17:16.32 bitrate=N/A speed=18.3x    frame=25109 fps=438 q=-0.0 size=N/A time=00:17:27.25 bitrate=N/A speed=18.3x    frame=25352 fps=439 q=-0.0 size=N/A time=00:17:37.38 bitrate=N/A speed=18.3x    frame=25584 fps=439 q=-0.0 size=N/A time=00:17:47.06 bitrate=N/A speed=18.3x    frame=25805 fps=439 q=-0.0 size=N/A time=00:17:56.28 bitrate=N/A speed=18.3x    frame=26034 fps=439 q=-0.0 size=N/A time=00:18:05.83 bitrate=N/A speed=18.3x    frame=26262 fps=439 q=-0.0 size=N/A time=00:18:15.34 bitrate=N/A speed=18.3x    frame=26506 fps=439 q=-0.0 size=N/A time=00:18:25.52 bitrate=N/A speed=18.3x    frame=26756 fps=439 q=-0.0 size=N/A time=00:18:35.94 bitrate=N/A speed=18.3x    frame=26966 fps=439 q=-0.0 size=N/A time=00:18:44.70 bitrate=N/A speed=18.3x    frame=27200 fps=439 q=-0.0 size=N/A time=00:18:54.46 bitrate=N/A speed=18.3x    frame=27456 fps=440 q=-0.0 size=N/A time=00:19:05.14 bitrate=N/A speed=18.3x    frame=27710 fps=440 q=-0.0 size=N/A time=00:19:15.73 bitrate=N/A speed=18.4x    frame=27952 fps=440 q=-0.0 size=N/A time=00:19:25.83 bitrate=N/A speed=18.4x    frame=28195 fps=441 q=-0.0 size=N/A time=00:19:35.96 bitrate=N/A speed=18.4x    frame=28466 fps=441 q=-0.0 size=N/A time=00:19:47.26 bitrate=N/A speed=18.4x    frame=28724 fps=442 q=-0.0 size=N/A time=00:19:58.03 bitrate=N/A speed=18.4x    frame=28996 fps=442 q=-0.0 size=N/A time=00:20:09.37 bitrate=N/A speed=18.5x    frame=29218 fps=442 q=-0.0 size=N/A time=00:20:18.63 bitrate=N/A speed=18.5x    frame=29442 fps=442 q=-0.0 size=N/A time=00:20:27.97 bitrate=N/A speed=18.4x    frame=29695 fps=443 q=-0.0 size=N/A time=00:20:38.52 bitrate=N/A speed=18.5x    frame=29943 fps=443 q=-0.0 size=N/A time=00:20:48.87 bitrate=N/A speed=18.5x    frame=30129 fps=442 q=-0.0 size=N/A time=00:20:56.63 bitrate=N/A speed=18.5x    frame=30363 fps=442 q=-0.0 size=N/A time=00:21:06.39 bitrate=N/A speed=18.5x    frame=30557 fps=442 q=-0.0 size=N/A time=00:21:14.48 bitrate=N/A speed=18.4x    frame=30739 fps=441 q=-0.0 size=N/A time=00:21:22.07 bitrate=N/A speed=18.4x    frame=30897 fps=440 q=-0.0 size=N/A time=00:21:28.66 bitrate=N/A speed=18.4x    frame=31087 fps=440 q=-0.0 size=N/A time=00:21:36.58 bitrate=N/A speed=18.3x    frame=31299 fps=440 q=-0.0 size=N/A time=00:21:45.42 bitrate=N/A speed=18.3x    frame=31499 fps=439 q=-0.0 size=N/A time=00:21:53.77 bitrate=N/A speed=18.3x    frame=31725 fps=439 q=-0.0 size=N/A time=00:22:03.19 bitrate=N/A speed=18.3x    frame=31952 fps=439 q=-0.0 size=N/A time=00:22:12.66 bitrate=N/A speed=18.3x    frame=32175 fps=439 q=-0.0 size=N/A time=00:22:21.96 bitrate=N/A speed=18.3x    frame=32409 fps=439 q=-0.0 size=N/A time=00:22:31.72 bitrate=N/A speed=18.3x    frame=32630 fps=439 q=-0.0 size=N/A time=00:22:40.94 bitrate=N/A speed=18.3x    frame=32856 fps=439 q=-0.0 size=N/A time=00:22:50.36 bitrate=N/A speed=18.3x    frame=33069 fps=439 q=-0.0 size=N/A time=00:22:59.25 bitrate=N/A speed=18.3x    frame=33254 fps=438 q=-0.0 size=N/A time=00:23:06.96 bitrate=N/A speed=18.3x    frame=33454 fps=438 q=-0.0 size=N/A time=00:23:15.31 bitrate=N/A speed=18.3x    frame=33677 fps=438 q=-0.0 size=N/A time=00:23:24.61 bitrate=N/A speed=18.3x    frame=33870 fps=438 q=-0.0 size=N/A time=00:23:32.66 bitrate=N/A speed=18.3x    frame=34081 fps=438 q=-0.0 size=N/A time=00:23:41.46 bitrate=N/A speed=18.2x    [Parsed_ssim_10 @ 000001f7b9bd2180] SSIM Y:0.992960 (21.524115) U:0.991769 (20.845256) V:0.991572 (20.742779) All:0.992530 (21.266756)
[out#0/null @ 000001f7b9be0180] video:14696KiB audio:267492KiB subtitle:0KiB other streams:0KiB global headers:0KiB muxing overhead: unknown
frame=34202 fps=438 q=-0.0 Lsize=N/A time=00:23:46.50 bitrate=N/A speed=18.3x    
